<svg xmlns="http://www.w3.org/2000/svg" version="1.1" xmlns:xlink="http://www.w3.org/1999/xlink"
    xmlns:svgjs="http://svgjs.com/svgjs" width="512" height="512" x="0" y="0" viewBox="0 0 512 512"
    style="enable-background:new 0 0 512 512" xml:space="preserve" class="">
    <g>
        <path style="--darkreader-inline-fill: #61450c;" d="M256,512l-74.98-74.98H74.98V330.98L0,256l74.98-74.98V74.98h106.04L256,0l74.98,74.98h106.04v106.04
	L512,256l-74.98,74.98v106.04H330.98L256,512z" fill="#edc472" data-original="#edc472" data-darkreader-inline-fill=""
            class=""></path>
        <polygon style="--darkreader-inline-fill: #896114;" points="437.02,181.02 437.02,74.98 330.98,74.98 256,0 256,512 330.98,437.02 437.02,437.02 
	437.02,330.98 512,256 " fill="#e8ba64" data-original="#e8ba64" data-darkreader-inline-fill=""></polygon>
        <polygon style="--darkreader-inline-fill: #583d00;" points="104.99,407.01 193.45,407.01 256,469.561 318.55,407.01 407.01,407.01 407.01,318.55 
	469.561,256 407.01,193.45 407.01,104.99 318.55,104.99 256,42.439 193.45,104.99 104.99,104.99 104.99,193.45 42.439,256 
	104.99,318.55 " fill="#ffde91" data-original="#ffde91" data-darkreader-inline-fill=""></polygon>
        <polygon style="--darkreader-inline-fill: #7e5605;" points="407.01,193.45 407.01,104.99 318.55,104.99 256,42.439 256,469.561 318.55,407.01 
	407.01,407.01 407.01,318.55 469.561,256 " fill="#fad17f" data-original="#fad17f" data-darkreader-inline-fill="">
        </polygon>
        <path style="--darkreader-inline-fill: #964b00;" d="M256,427.12L205.88,377h-70.881v-70.88L84.88,256L135,205.88v-70.881h70.881L256,84.88L306.12,135
	h70.881v70.881L427.12,256L377,306.12v70.881h-70.88L256,427.12z" fill="#ffac5a" data-original="#ffac5a"
            data-darkreader-inline-fill=""></path>
        <polygon style="--darkreader-inline-fill: #a44e03;" points="377.001,205.88 377.001,134.999 306.12,134.999 256,84.88 256,427.12 306.12,377.001 
	377.001,377.001 377.001,306.12 427.12,256 " fill="#fc9942" data-original="#fc9942" data-darkreader-inline-fill="">
        </polygon>
        <polygon style="--darkreader-inline-fill: #734000;" points="165.009,346.991 218.31,346.991 256,384.681 293.69,346.991 346.991,346.991 346.991,293.69 
	384.681,256 346.991,218.31 346.991,165.009 293.69,165.009 256,127.319 218.31,165.009 165.009,165.009 165.009,218.31 
	127.319,256 165.009,293.69 " fill="#ffcf94" data-original="#ffcf94" data-darkreader-inline-fill=""></polygon>
        <polygon style="--darkreader-inline-fill: #894d00;" points="346.991,218.31 346.991,165.009 293.69,165.009 256,127.319 256,384.681 293.69,346.991 
	346.991,346.991 346.991,293.69 384.681,256 " fill="#ffc170" data-original="#ffc170" data-darkreader-inline-fill="">
        </polygon>
        <g>
        </g>
        <g>
        </g>
        <g>
        </g>
        <g>
        </g>
        <g>
        </g>
        <g>
        </g>
        <g>
        </g>
        <g>
        </g>
        <g>
        </g>
        <g>
        </g>
        <g>
        </g>
        <g>
        </g>
        <g>
        </g>
        <g>
        </g>
        <g>
        </g>
    </g>
</svg>