<svg xmlns="http://www.w3.org/2000/svg" xmlns:svgjs="http://svgjs.com/svgjs" xmlns:xlink="http://www.w3.org/1999/xlink" width="512" height="512" x="0" y="0" version="1.1" viewBox="0 0 512.001 512" style="enable-background:new 0 0 512 512" xml:space="preserve"><g><path fill="#ffdecf" d="m442.480469 162.488281h-15.511719c-.0625 0-.117188 0-.179688 0-11.652343.03125-22.886718-4.246093-31.265624-12.308593l-21.800782 21.804687c-3.199218 3.195313-6.710937 5.953125-10.449218 8.257813l6.945312 6.945312c2.183594 2.183594 2.691406 5.550781 1.207031 8.261719-4.925781 9-7.730469 19.324219-7.730469 30.308593 0 1.6875.125 3.34375.375 4.960938 1.78125 1.640625 1.492188 8.0625 2.8125 10.109375 2.363282 3.660156 4.808594 6.945313 6.246094 7.898437 5.925782 6 14.15625 9.71875 23.253906 9.71875h46.097657l6.558593-43.464843zm0 0" data-original="#ffdecf"/><path fill="#ffcdbe" d="m442.480469 227.898438c-8.21875 6.59375-18.644531 10.546874-30 10.546874h-42.457031c.820312 1.566407-.527344 4.042969 0 5.761719.523437 1.71875 2.917968 2.679688 3.105468 4.519531 5.925782 6 14.15625 9.722657 23.253906 9.722657h46.097657" data-original="#ffcdbe"/><path fill="#ffcdbe" d="m442.480469 258.445312 2.636719-15.273437-2.636719-15.273437" data-original="#ffcdbe"/><path fill="#958fca" d="m442.480469 162.488281c26.5 0 47.980469 21.480469 47.980469 47.976563 0 26.5-21.480469 47.980468-47.980469 47.980468zm0 0" data-original="#958fca"/><path fill="#8078bf" d="m486.527344 229.515625c5.550781-12.8125 5.203125-27.566406-.855469-39.96875-6.488281-13.367187-18.878906-23.089844-33.53125-26.085937 14.035156 20.566406 9.996094 48.683593-9.660156 64.453124v30.53125c19.15625 0 36.40625-11.339843 44.046875-28.929687zm0 0" data-original="#8078bf"/><path fill="#ffdecf" d="m344.804688 223.210938h-20.726563l-35.238281 35.234374h77.683594c3.734374 0 6.757812-3.023437 6.757812-6.757812 0-15.726562-12.75-28.476562-28.476562-28.476562zm0 0" data-original="#ffdecf"/><path fill="#ebe1dc" d="m240.664062 0h-42.207031c-47.695312 0-81.335937 46.78125-66.152343 91.996094l32.226562 95.976562h-70.585938v61.917969c0 4.726563 3.828126 8.558594 8.554688 8.558594h93.441406c21.242188 0 38.460938-17.222657 38.460938-38.460938v-15.976562l54.4375 54.4375 35.390625-35.394531c.691406-.6875.691406-1.808594 0-2.5l-41.132813-41.132813c-2.488281-2.488281-3.382812-5.957031-2.699218-9.160156l28.875 13.269531c21.78125 10.011719 47.496093 5.40625 64.449218-11.546875l26.78125-26.78125c2.976563-2.980469 4.226563-7.253906 3.398438-11.382813-14.949219-74.914062-81-133.820312-163.238282-133.820312zm0 0" data-original="#ebe1dc"/><path fill="#ffdecf" d="m93.945312 221.761719v-33.789063h-50.964843c-11.839844 0-21.441407 9.601563-21.441407 21.441406v34.660157c0 7.9375 6.4375 14.375 14.375 14.375h28.144532c5.941406 0 10.761718-4.820313 10.761718-10.765625 0-5.246094-4.253906-9.5-9.5-9.5h-1.328124c-3.035157 0-5.5-2.460938-5.5-5.5v-5.421875c0-3.035157 2.464843-5.5 5.5-5.5zm0 0" data-original="#ffdecf"/><path fill="#a4f7c5" d="m509.859375 278.851562h-507.71875c-1.179687 0-2.140625-.957031-2.140625-2.140624v-16.125c0-1.179688.957031-2.140626 2.140625-2.140626h507.71875c1.183594 0 2.140625.960938 2.140625 2.140626v16.125c0 1.183593-.957031 2.140624-2.140625 2.140624zm0 0" data-original="#a4f7c5"/><path fill="#ffcdbe" d="m423.648438 201.445312c-4.140626 0-7.5-3.359374-7.5-7.5 0-2.292968-1.867188-4.160156-4.160157-4.160156s-4.160156 1.867188-4.160156 4.160156c0 4.140626-3.355469 7.5-7.5 7.5-4.140625 0-7.5-3.359374-7.5-7.5 0-10.566406 8.597656-19.160156 19.160156-19.160156 10.566407 0 19.160157 8.59375 19.160157 19.160156 0 4.140626-3.355469 7.5-7.5 7.5zm0 0" data-original="#ffcdbe"/><g fill="#c8beb9"><path fill="#c8beb9" d="m403.90625 133.820312c-11.523438-57.722656-53.378906-105.9375-109.601562-125.03125 21.140624 14.445313 38.679687 33.597657 51.242187 55.765626 16.144531 28.5 11.335937 64.265624-11.824219 87.429687-3.953125 3.949219-8.382812 7.230469-13.128906 9.804687-4.695312 2.550782-9.277344-3.5-5.5-7.277343l8.101562-8.101563c2.902344-2.902344 3.195313-7.671875.378907-10.660156-2.914063-3.09375-7.78125-3.148438-10.765625-.164062l-36.527344 36.527343c-5.660156 5.65625-5.660156 14.832031 0 20.488281 5.082031 5.082032 5.082031 13.324219 0 18.40625l-17.441406 17.4375 30 30 35.390625-35.390624c.691406-.691407.691406-1.808594 0-2.5l-41.132813-41.136719c-2.488281-2.488281-3.378906-5.957031-2.695312-9.15625l28.871094 13.269531c21.785156 10.011719 47.496093 5.402344 64.449218-11.546875l26.78125-26.785156c2.976563-2.976563 4.226563-7.25 3.402344-11.378907zm0 0" data-original="#c8beb9"/><path fill="#c8beb9" d="m282.761719 102.953125c2.90625-2.90625 3.199219-7.675781.382812-10.664063-2.914062-3.089843-7.785156-3.148437-10.769531-.164062l-54.480469 54.480469c-12.71875 12.722656-15.988281 31.367187-9.804687 47.136719.578125 1.472656-1.269532 2.6875-2.390625 1.566406-4.167969-4.171875-11.296875-1.21875-11.296875 4.679687 0 21.238281-17.21875 38.457031-38.457032 38.457031h-62v11.445313c0 4.726563 3.828126 8.554687 8.554688 8.554687h93.441406c19.949219 0 36.347656-15.183593 38.273438-34.625l-.027344-.027343c.125-1.253907.214844-2.519531.214844-3.804688v-15.980469l-5.898438-5.898437c-11.277344-11.277344-11.277344-29.621094 0-40.898437zm0 0" data-original="#c8beb9"/></g></g></svg>